<?xml version="1.0" standalone="no"?>
<!DOCTYPE svg PUBLIC "-//W3C//DTD SVG 20010904//EN"
 "http://www.w3.org/TR/2001/REC-SVG-20010904/DTD/svg10.dtd">
<svg version="1.0" xmlns="http://www.w3.org/2000/svg"
 width="666.000000pt" height="666.000000pt" viewBox="0 0 666.000000 666.000000"
 preserveAspectRatio="xMidYMid meet">
<metadata>
Created by potrace 1.14, written by Peter Selinger 2001-2017
</metadata>
<g transform="translate(0.000000,666.000000) scale(0.100000,-0.100000)"
fill="#000000" stroke="none">
<path d="M1704 5945 c-239 -52 -459 -237 -556 -466 -61 -146 -59 -49 -55
-2254 3 -2267 -6 -2045 83 -2215 81 -157 189 -262 349 -340 175 -86 54 -81
1860 -78 1508 3 1593 4 1655 22 251 70 447 258 537 511 l28 80 3 1612 2 1611
-21 56 c-11 31 -37 78 -57 105 -44 57 -1141 1168 -1245 1260 -40 35 -92 73
-117 85 l-45 21 -1180 2 c-956 1 -1192 -1 -1241 -12z m2478 -872 l3 -438 31
-55 c35 -61 104 -120 174 -147 39 -15 94 -18 401 -21 l357 -3 7 -370 c4 -203
4 -888 1 -1522 -7 -1118 -8 -1154 -27 -1218 -11 -36 -37 -87 -57 -114 -43 -56
-145 -130 -201 -145 -43 -11 -2479 -21 -2826 -11 -203 6 -212 7 -266 34 -126
61 -209 183 -230 334 -7 57 -9 624 -6 1919 4 2034 -1 1885 69 2001 50 83 134
148 233 179 31 10 291 13 1187 13 l1147 1 3 -437z"/>
<path d="M2098 4990 c-46 -14 -85 -48 -102 -90 -21 -53 -22 -252 -2 -301 15
-36 56 -79 93 -98 15 -8 172 -11 525 -11 491 0 504 1 537 21 77 46 96 101 89
256 -5 114 -16 149 -60 191 -14 12 -40 27 -59 32 -41 12 -982 12 -1021 0z"/>
<path d="M2038 4024 c-38 -20 -58 -63 -58 -125 0 -46 4 -55 38 -89 31 -32 47
-39 92 -44 30 -4 606 -5 1280 -4 1204 3 1226 3 1259 23 96 57 105 182 17 236
-30 18 -76 19 -1316 19 -1117 -1 -1289 -3 -1312 -16z"/>
<path d="M2038 3444 c-58 -31 -78 -136 -36 -189 45 -58 -21 -55 1350 -55 1254
0 1262 0 1304 21 34 16 46 29 60 64 14 38 15 49 3 87 -10 28 -25 50 -48 65
l-34 23 -1286 0 c-1118 -1 -1290 -3 -1313 -16z"/>
<path d="M2053 2885 c-67 -29 -93 -125 -53 -190 42 -69 -36 -65 1348 -65 820
0 1260 4 1284 10 78 22 114 105 80 182 -37 84 75 78 -1359 78 -1066 -1 -1273
-3 -1300 -15z"/>
<path d="M2062 2318 c-94 -25 -114 -176 -30 -228 33 -20 51 -20 1327 -20
l1294 0 32 34 c58 62 52 149 -16 198 -24 18 -73 19 -1301 21 -702 2 -1289 -1
-1306 -5z"/>
<path d="M2042 1743 c-88 -43 -83 -181 8 -228 25 -13 197 -15 1299 -15 1149 0
1274 2 1304 16 91 43 93 185 3 228 -31 15 -149 16 -1308 16 -1155 0 -1276 -2
-1306 -17z"/>
</g>
</svg>
